<svg width="176" height="175" viewBox="0 0 176 175" fill="none" xmlns="http://www.w3.org/2000/svg">
<g id="Group">
<path id="Vector" d="M168.361 40.3694L168.298 40.4315C171.982 44.8806 173.868 50.5335 173.591 56.2897C173.314 62.0459 170.892 67.4936 166.798 71.5721C164.639 73.7292 162.072 75.4409 159.246 76.6089C156.419 77.7768 153.389 78.3781 150.328 78.3781C147.267 78.3781 144.236 77.7768 141.41 76.6089C138.583 75.4409 136.017 73.7292 133.858 71.5721C130.023 67.7757 127.64 62.7684 127.119 57.4128L115.843 68.6321L106.999 59.8431L117.912 48.9968C112.849 48.3296 108.149 46.0178 104.542 42.4206C102.373 40.2733 100.652 37.721 99.4773 34.9103C98.3028 32.0996 97.6981 29.0859 97.6981 26.0422C97.6981 22.9985 98.3028 19.9848 99.4773 17.1742C100.652 14.3635 102.373 11.8112 104.542 9.6639C108.554 5.67528 113.891 3.27891 119.553 2.92417C125.214 2.56943 130.812 4.28069 135.295 7.73704L135.42 7.61272C144.484 -1.46218 159.235 -1.40002 168.361 7.61272C170.53 9.76003 172.251 12.3123 173.426 15.123C174.6 17.9337 175.205 20.9474 175.205 23.9911C175.205 27.0347 174.6 30.0485 173.426 32.8591C172.251 35.6698 170.53 38.2221 168.361 40.3694Z" fill="#00D26A"/>
<path id="Vector_2" d="M16.7217 174.193L115.168 142.493C143.358 133.418 151.922 97.9266 130.982 77.104L98.4792 44.7825C77.5398 23.9599 41.849 32.5376 32.7231 60.5082L0.845188 158.405C-2.34261 168.164 6.90825 177.363 16.7217 174.193Z" fill="#FF822D"/>
<path id="Vector_3" d="M65.0449 109.053C68.1076 106.007 68.1076 101.097 65.0449 97.9888L31.4168 64.5484L25.9788 81.2065L53.9188 108.991C56.9816 112.098 61.9821 112.098 65.0449 109.053ZM41.4177 137.334C38.3549 140.38 38.3549 145.29 41.4177 148.398L54.9814 161.886L71.733 156.478L52.4812 137.334C51.7554 136.611 50.8932 136.036 49.944 135.645C48.9948 135.253 47.9772 135.051 46.9494 135.051C45.9217 135.051 44.9041 135.253 43.9549 135.645C43.0057 136.036 42.1435 136.611 41.4177 137.334ZM89.2971 106.38C86.2343 103.272 86.2343 98.3618 89.2971 95.3161C92.3599 92.2704 97.2979 92.2704 100.423 95.3782L134.364 129.129C131.238 133.232 127.238 136.713 122.488 139.385L89.2971 106.38Z" fill="#FF6723"/>
</g>
</svg>
