<svg width="390" height="844" viewBox="0 0 390 844" fill="none" xmlns="http://www.w3.org/2000/svg">
<rect width="390" height="844" rx="24" fill="#009959"/>
<path d="M297.361 271.369L297.298 271.432C300.982 275.881 302.868 281.533 302.591 287.29C302.314 293.046 299.892 298.494 295.798 302.572C293.639 304.729 291.072 306.441 288.246 307.609C285.419 308.777 282.389 309.378 279.328 309.378C276.267 309.378 273.236 308.777 270.41 307.609C267.583 306.441 265.017 304.729 262.858 302.572C259.023 298.776 256.64 293.768 256.119 288.413L244.843 299.632L235.999 290.843L246.912 279.997C241.849 279.33 237.149 277.018 233.542 273.421C231.373 271.273 229.652 268.721 228.477 265.91C227.303 263.1 226.698 260.086 226.698 257.042C226.698 253.999 227.303 250.985 228.477 248.174C229.652 245.363 231.373 242.811 233.542 240.664C237.554 236.675 242.891 234.279 248.553 233.924C254.214 233.569 259.812 235.281 264.295 238.737L264.42 238.613C273.484 229.538 288.235 229.6 297.361 238.613C299.53 240.76 301.251 243.312 302.426 246.123C303.6 248.934 304.205 251.947 304.205 254.991C304.205 258.035 303.6 261.048 302.426 263.859C301.251 266.67 299.53 269.222 297.361 271.369Z" fill="#00D26A"/>
<path d="M145.722 405.193L244.168 373.493C272.358 364.418 280.922 328.927 259.982 308.104L227.479 275.782C206.54 254.96 170.849 263.538 161.723 291.508L129.845 389.405C126.657 399.164 135.908 408.363 145.722 405.193Z" fill="#FF822D"/>
<path d="M194.045 340.053C197.108 337.007 197.108 332.097 194.045 328.989L160.417 295.548L154.979 312.206L182.919 339.991C185.982 343.098 190.982 343.098 194.045 340.053ZM170.418 368.334C167.355 371.38 167.355 376.29 170.418 379.398L183.981 392.886L200.733 387.478L181.481 368.334C180.755 367.611 179.893 367.036 178.944 366.645C177.995 366.253 176.977 366.051 175.949 366.051C174.922 366.051 173.904 366.253 172.955 366.645C172.006 367.036 171.143 367.611 170.418 368.334ZM218.297 337.38C215.234 334.272 215.234 329.362 218.297 326.316C221.36 323.27 226.298 323.27 229.423 326.378L263.364 360.129C260.238 364.232 256.238 367.713 251.488 370.385L218.297 337.38Z" fill="#FF6723"/>
<path d="M121.766 435.79C121.158 434.67 120.278 433.822 119.126 433.246C118.006 432.638 116.678 432.334 115.142 432.334C112.486 432.334 110.358 433.214 108.758 434.974C107.158 436.702 106.358 439.022 106.358 441.934C106.358 445.038 107.19 447.47 108.854 449.23C110.55 450.958 112.87 451.822 115.814 451.822C117.83 451.822 119.526 451.31 120.902 450.286C122.31 449.262 123.334 447.79 123.974 445.87H113.558V439.822H131.414V447.454C130.806 449.502 129.766 451.406 128.294 453.166C126.854 454.926 125.014 456.35 122.774 457.438C120.534 458.526 118.006 459.07 115.19 459.07C111.862 459.07 108.886 458.35 106.262 456.91C103.67 455.438 101.638 453.406 100.166 450.814C98.7259 448.222 98.0059 445.262 98.0059 441.934C98.0059 438.606 98.7259 435.646 100.166 433.054C101.638 430.43 103.67 428.398 106.262 426.958C108.854 425.486 111.814 424.75 115.142 424.75C119.174 424.75 122.566 425.726 125.318 427.678C128.102 429.63 129.942 432.334 130.838 435.79H121.766ZM144.168 436.51C145.128 435.038 146.328 433.886 147.768 433.054C149.208 432.19 150.808 431.758 152.568 431.758V440.446H150.312C148.264 440.446 146.728 440.894 145.704 441.79C144.68 442.654 144.168 444.19 144.168 446.398V458.83H135.96V432.046H144.168V436.51ZM168.684 459.214C166.06 459.214 163.692 458.654 161.58 457.534C159.5 456.414 157.852 454.814 156.636 452.734C155.452 450.654 154.86 448.222 154.86 445.438C154.86 442.686 155.468 440.27 156.684 438.19C157.9 436.078 159.564 434.462 161.676 433.342C163.788 432.222 166.156 431.662 168.78 431.662C171.404 431.662 173.772 432.222 175.884 433.342C177.996 434.462 179.66 436.078 180.876 438.19C182.092 440.27 182.7 442.686 182.7 445.438C182.7 448.19 182.076 450.622 180.828 452.734C179.612 454.814 177.932 456.414 175.788 457.534C173.676 458.654 171.308 459.214 168.684 459.214ZM168.684 452.11C170.252 452.11 171.58 451.534 172.668 450.382C173.788 449.23 174.348 447.582 174.348 445.438C174.348 443.294 173.804 441.646 172.716 440.494C171.66 439.342 170.348 438.766 168.78 438.766C167.18 438.766 165.852 439.342 164.796 440.494C163.74 441.614 163.212 443.262 163.212 445.438C163.212 447.582 163.724 449.23 164.748 450.382C165.804 451.534 167.116 452.11 168.684 452.11ZM185.422 445.438C185.422 442.654 185.982 440.222 187.102 438.142C188.254 436.062 189.838 434.462 191.854 433.342C193.902 432.222 196.238 431.662 198.862 431.662C202.222 431.662 205.022 432.542 207.262 434.302C209.534 436.062 211.022 438.542 211.726 441.742H202.99C202.254 439.694 200.83 438.67 198.718 438.67C197.214 438.67 196.014 439.262 195.118 440.446C194.222 441.598 193.774 443.262 193.774 445.438C193.774 447.614 194.222 449.294 195.118 450.478C196.014 451.63 197.214 452.206 198.718 452.206C200.83 452.206 202.254 451.182 202.99 449.134H211.726C211.022 452.27 209.534 454.734 207.262 456.526C204.99 458.318 202.19 459.214 198.862 459.214C196.238 459.214 193.902 458.654 191.854 457.534C189.838 456.414 188.254 454.814 187.102 452.734C185.982 450.654 185.422 448.222 185.422 445.438ZM241.365 445.006C241.365 445.774 241.317 446.574 241.221 447.406H222.645C222.773 449.07 223.301 450.35 224.229 451.246C225.189 452.11 226.357 452.542 227.733 452.542C229.781 452.542 231.205 451.678 232.005 449.95H240.741C240.293 451.71 239.477 453.294 238.293 454.702C237.141 456.11 235.685 457.214 233.925 458.014C232.165 458.814 230.197 459.214 228.021 459.214C225.397 459.214 223.061 458.654 221.013 457.534C218.965 456.414 217.365 454.814 216.213 452.734C215.061 450.654 214.485 448.222 214.485 445.438C214.485 442.654 215.045 440.222 216.165 438.142C217.317 436.062 218.917 434.462 220.965 433.342C223.013 432.222 225.365 431.662 228.021 431.662C230.613 431.662 232.917 432.206 234.933 433.294C236.949 434.382 238.517 435.934 239.637 437.95C240.789 439.966 241.365 442.318 241.365 445.006ZM232.965 442.846C232.965 441.438 232.485 440.318 231.525 439.486C230.565 438.654 229.365 438.238 227.925 438.238C226.549 438.238 225.381 438.638 224.421 439.438C223.493 440.238 222.917 441.374 222.693 442.846H232.965ZM253.903 436.51C254.863 435.038 256.063 433.886 257.503 433.054C258.943 432.19 260.543 431.758 262.303 431.758V440.446H260.047C257.999 440.446 256.463 440.894 255.439 441.79C254.415 442.654 253.903 444.19 253.903 446.398V458.83H245.695V432.046H253.903V436.51ZM293.586 432.046L276.786 471.55H267.954L274.098 457.918L263.202 432.046H272.37L278.562 448.798L284.706 432.046H293.586ZM168.679 524.878H156.103L154.087 530.83H145.495L157.687 497.134H167.191L179.383 530.83H170.695L168.679 524.878ZM166.567 518.542L162.391 506.206L158.263 518.542H166.567ZM191.301 507.838C192.101 506.59 193.205 505.582 194.613 504.814C196.021 504.046 197.669 503.662 199.557 503.662C201.765 503.662 203.765 504.222 205.557 505.342C207.349 506.462 208.757 508.062 209.781 510.142C210.837 512.222 211.365 514.638 211.365 517.39C211.365 520.142 210.837 522.574 209.781 524.686C208.757 526.766 207.349 528.382 205.557 529.534C203.765 530.654 201.765 531.214 199.557 531.214C197.701 531.214 196.053 530.83 194.613 530.062C193.205 529.294 192.101 528.302 191.301 527.086V543.598H183.093V504.046H191.301V507.838ZM203.013 517.39C203.013 515.342 202.437 513.742 201.285 512.59C200.165 511.406 198.773 510.814 197.109 510.814C195.477 510.814 194.085 511.406 192.933 512.59C191.813 513.774 191.253 515.39 191.253 517.438C191.253 519.486 191.813 521.102 192.933 522.286C194.085 523.47 195.477 524.062 197.109 524.062C198.741 524.062 200.133 523.47 201.285 522.286C202.437 521.07 203.013 519.438 203.013 517.39ZM223.879 507.838C224.679 506.59 225.783 505.582 227.191 504.814C228.599 504.046 230.247 503.662 232.135 503.662C234.343 503.662 236.343 504.222 238.135 505.342C239.927 506.462 241.335 508.062 242.359 510.142C243.415 512.222 243.943 514.638 243.943 517.39C243.943 520.142 243.415 522.574 242.359 524.686C241.335 526.766 239.927 528.382 238.135 529.534C236.343 530.654 234.343 531.214 232.135 531.214C230.279 531.214 228.631 530.83 227.191 530.062C225.783 529.294 224.679 528.302 223.879 527.086V543.598H215.671V504.046H223.879V507.838ZM235.591 517.39C235.591 515.342 235.015 513.742 233.863 512.59C232.743 511.406 231.351 510.814 229.687 510.814C228.055 510.814 226.663 511.406 225.511 512.59C224.391 513.774 223.831 515.39 223.831 517.438C223.831 519.486 224.391 521.102 225.511 522.286C226.663 523.47 228.055 524.062 229.687 524.062C231.319 524.062 232.711 523.47 233.863 522.286C235.015 521.07 235.591 519.438 235.591 517.39Z" fill="white"/>
</svg>
